<?xml version="1.0" encoding="UTF-8" standalone="no"?>
<!-- Generator: Adobe Illustrator 15.0.0, SVG Export Plug-In . SVG Version: 6.00 Build 0)  -->

<svg
   xmlns:dc="http://purl.org/dc/elements/1.1/"
   xmlns:cc="http://creativecommons.org/ns#"
   xmlns:rdf="http://www.w3.org/1999/02/22-rdf-syntax-ns#"
   xmlns:svg="http://www.w3.org/2000/svg"
   xmlns="http://www.w3.org/2000/svg"
   xmlns:xlink="http://www.w3.org/1999/xlink"
   xmlns:sodipodi="http://sodipodi.sourceforge.net/DTD/sodipodi-0.dtd"
   xmlns:inkscape="http://www.inkscape.org/namespaces/inkscape"
   version="1.1"
   id="Shape_5_2_"
   x="0px"
   y="0px"
   width="40px"
   height="40px"
   viewBox="0 0 40 40"
   enable-background="new 0 0 40 40"
   xml:space="preserve"
   inkscape:version="0.48.4 r9939"
   sodipodi:docname="backup.svg"><metadata
     id="metadata9"><rdf:RDF><cc:Work
         rdf:about=""><dc:format>image/svg+xml</dc:format><dc:type
           rdf:resource="http://purl.org/dc/dcmitype/StillImage" /><dc:title></dc:title></cc:Work></rdf:RDF></metadata><defs
     id="defs7"><linearGradient
       id="linearGradient2986"><stop
         style="stop-color:#66ff00;stop-opacity:1"
         offset="0"
         id="stop2996" /><stop
         style="stop-color:#008000;stop-opacity:1"
         offset="1"
         id="stop2990" /></linearGradient><linearGradient
       inkscape:collect="always"
       xlink:href="#linearGradient2986"
       id="linearGradient2992"
       x1="2.086246"
       y1="2.3728807"
       x2="29.289635"
       y2="33.813557"
       gradientUnits="userSpaceOnUse" /></defs><sodipodi:namedview
     pagecolor="#ffffff"
     bordercolor="#666666"
     borderopacity="1"
     objecttolerance="10"
     gridtolerance="10"
     guidetolerance="10"
     inkscape:pageopacity="0"
     inkscape:pageshadow="2"
     inkscape:window-width="1317"
     inkscape:window-height="744"
     id="namedview5"
     showgrid="false"
     inkscape:zoom="11.8"
     inkscape:cx="17.281582"
     inkscape:cy="18.617085"
     inkscape:window-x="45"
     inkscape:window-y="-1"
     inkscape:window-maximized="1"
     inkscape:current-layer="Shape_5_2_" /><path
     d="m 2.5015,20.4985 c 0,-6.076 3.198,-11.392 7.993,-14.395 l -1.767,-3.602 11.774,1.33 -5.894,10.653 -1.896,-3.862 c -3.142,2.162 -5.21,5.772 -5.21,9.876 0,6.627 5.373,12 12,12 6.627,0 12,-5.373 12,-12 0,-4.801 -2.827,-8.932 -6.9,-10.851 l 2.085,-4.54 c 5.793,2.71 9.815,8.574 9.815,15.391 0,9.389 -7.611,17 -17,17 -9.389,0 -17,-7.611 -17,-17 z"
     id="path3"
     inkscape:connector-curvature="0"
     style="fill:url(#linearGradient2992);stroke:#008000"
     sodipodi:nodetypes="scccccsssccsss" /></svg>