<?xml version="1.0" encoding="UTF-8" standalone="no"?>
<!-- Generator: Adobe Illustrator 15.0.0, SVG Export Plug-In . SVG Version: 6.00 Build 0)  -->

<svg
   xmlns:dc="http://purl.org/dc/elements/1.1/"
   xmlns:cc="http://creativecommons.org/ns#"
   xmlns:rdf="http://www.w3.org/1999/02/22-rdf-syntax-ns#"
   xmlns:svg="http://www.w3.org/2000/svg"
   xmlns="http://www.w3.org/2000/svg"
   xmlns:sodipodi="http://sodipodi.sourceforge.net/DTD/sodipodi-0.dtd"
   xmlns:inkscape="http://www.inkscape.org/namespaces/inkscape"
   version="1.1"
   id="Shape_5_2_"
   x="0px"
   y="0px"
   width="40px"
   height="40px"
   viewBox="0 0 40 40"
   enable-background="new 0 0 40 40"
   xml:space="preserve"
   inkscape:version="0.48.4 r9939"
   sodipodi:docname="edit.svg"><metadata
     id="metadata9"><rdf:RDF><cc:Work
         rdf:about=""><dc:format>image/svg+xml</dc:format><dc:type
           rdf:resource="http://purl.org/dc/dcmitype/StillImage" /></cc:Work></rdf:RDF></metadata><defs
     id="defs7" /><sodipodi:namedview
     pagecolor="#ffffff"
     bordercolor="#666666"
     borderopacity="1"
     objecttolerance="10"
     gridtolerance="10"
     guidetolerance="10"
     inkscape:pageopacity="0"
     inkscape:pageshadow="2"
     inkscape:window-width="1317"
     inkscape:window-height="744"
     id="namedview5"
     showgrid="false"
     inkscape:zoom="5.9"
     inkscape:cx="20"
     inkscape:cy="20"
     inkscape:window-x="45"
     inkscape:window-y="-1"
     inkscape:window-maximized="1"
     inkscape:current-layer="Shape_5_2_" /><path
     d="M 6.1037134,26.714788 2.1005409,36.547285 C 2.0389853,36.678604 2,36.821208 2,36.975098 2,37.54141 2.45859,38 3.0259284,38 c 0.1549151,0 0.2985451,-0.04001 0.428838,-0.101567 L 13.285212,33.896287 31.539555,15.641944 24.358057,8.4604451 6.1037134,26.714788 z m 0,8.207427 L 5.0777851,33.896287 8.15557,26.714788 13.285212,31.84443 6.1037134,34.922215 z M 35.855636,4.1443646 C 33.803779,2.0925079 31.751922,1.0665796 29.700066,3.1184362 l -1.070044,1.0700433 7.181498,7.1814985 1.070044,-1.070043 C 38.933421,8.248078 37.907492,6.1962213 35.855636,4.1443646 z M 25.552237,7.2662645 32.733735,14.447763 34.61734,12.564159 27.435842,5.3826601 25.552237,7.2662645 z"
     id="path3"
     style="fill:#241c1c"
     inkscape:connector-curvature="0" /></svg>