<?xml version="1.0" encoding="UTF-8" standalone="no"?>
<!-- Generator: Adobe Illustrator 15.0.0, SVG Export Plug-In . SVG Version: 6.00 Build 0)  -->

<svg
   xmlns:dc="http://purl.org/dc/elements/1.1/"
   xmlns:cc="http://creativecommons.org/ns#"
   xmlns:rdf="http://www.w3.org/1999/02/22-rdf-syntax-ns#"
   xmlns:svg="http://www.w3.org/2000/svg"
   xmlns="http://www.w3.org/2000/svg"
   xmlns:sodipodi="http://sodipodi.sourceforge.net/DTD/sodipodi-0.dtd"
   xmlns:inkscape="http://www.inkscape.org/namespaces/inkscape"
   version="1.1"
   id="Shape_5_2_"
   x="0px"
   y="0px"
   width="40px"
   height="40px"
   viewBox="0 0 40 40"
   enable-background="new 0 0 40 40"
   xml:space="preserve"
   inkscape:version="0.48.4 r9939"
   sodipodi:docname="document.svg"><metadata
     id="metadata9"><rdf:RDF><cc:Work
         rdf:about=""><dc:format>image/svg+xml</dc:format><dc:type
           rdf:resource="http://purl.org/dc/dcmitype/StillImage" /><dc:title></dc:title></cc:Work></rdf:RDF></metadata><defs
     id="defs7" /><sodipodi:namedview
     pagecolor="#ffffff"
     bordercolor="#666666"
     borderopacity="1"
     objecttolerance="10"
     gridtolerance="10"
     guidetolerance="10"
     inkscape:pageopacity="0"
     inkscape:pageshadow="2"
     inkscape:window-width="1317"
     inkscape:window-height="744"
     id="namedview5"
     showgrid="false"
     inkscape:zoom="11.8"
     inkscape:cx="32.296353"
     inkscape:cy="20.017472"
     inkscape:window-x="45"
     inkscape:window-y="-1"
     inkscape:window-maximized="1"
     inkscape:current-layer="Shape_5_2_" /><path
     fill="#006ADF"
     d="M24,2H6v36h28V15L23,7C26,4,27,2,24,2z M34,13.375L27.197,2.701c0.103,1.196-0.843,2.79-2.072,3.986  L34,13.375z"
     id="path3" /><path
     inkscape:connector-curvature="0"
     style="fill:#008000"
     d="M 30.500001,21.5 C 25.529501,21.5 21.5,25.5295 21.5,30.499999 21.5,35.4705 25.529501,39.5 30.500001,39.5 35.4705,39.5 39.5,35.4705 39.5,30.499999 39.5,25.5295 35.4705,21.5 30.500001,21.5 z"
     id="path2991" /><path
     inkscape:connector-curvature="0"
     style="fill:#ffffff"
     d="M 36.000001,32 H 32 v 4 H 29.000001 V 32 H 25 v -3.000001 h 4.000001 v -4 H 32 v 4 h 4.000001 V 32 z"
     id="path3-6" /></svg>