<?xml version="1.0" encoding="UTF-8" standalone="no"?>
<!-- Created with Inkscape (http://www.inkscape.org/) -->

<svg
   xmlns:dc="http://purl.org/dc/elements/1.1/"
   xmlns:cc="http://creativecommons.org/ns#"
   xmlns:rdf="http://www.w3.org/1999/02/22-rdf-syntax-ns#"
   xmlns:svg="http://www.w3.org/2000/svg"
   xmlns="http://www.w3.org/2000/svg"
   version="1.1"
   width="40"
   height="40"
   viewBox="0 0 40 40"
   id="Shape_5_2_"
   xml:space="preserve"><metadata
     id="metadata9"><rdf:RDF><cc:Work
         rdf:about=""><dc:format>image/svg+xml</dc:format><dc:type
           rdf:resource="http://purl.org/dc/dcmitype/StillImage" /><dc:title></dc:title></cc:Work></rdf:RDF></metadata><defs
     id="defs7" /><path
     d="m 22.002858,4 h -4.000715 v 3 h 4.000715 V 4 z m 10.495874,0 h -6.49516 V 7 H 33.999 V 5.5 C 33.999,4.672 33.32688,4 32.498732,4 z m -2.494446,12 h -4.000714 v -4 h -4.000714 v 4 h -4.000715 v 4 h 4.000715 v 4 h -4.000715 v -4 h -4.000714 v 4 H 10.000714 V 20 H 6 V 34.5 C 6,35.328 6.6711198,36 7.5002679,36 H 32.499732 C 33.32788,36 34,35.328 34,34.5 V 33 H 28.001929 V 32 H 34 V 8 h -3.995714 v 8 z M 14.001429,12 h -4.000715 v 4 h 4.000715 v -4 z"
     id="path3"
     style="fill:#006adf" /><path
     d="M 9.727265,2 6.982731,5.476364 4.216359,2 2,4.272727 5.31545,7.588182 2.909079,10.636364 4.216359,12 6.981815,9.253636 9.727265,12 11.090902,10.636364 8.662732,7.586364 12,4.272727 9.727265,2 z"
     id="path3-9"
     style="fill:#006adf;fill-opacity:1" /><path
     d="M 30.500001,21.5 C 25.529501,21.5 21.5,25.5295 21.5,30.499999 21.5,35.4705 25.529501,39.5 30.500001,39.5 35.4705,39.5 39.5,35.4705 39.5,30.499999 39.5,25.5295 35.4705,21.5 30.500001,21.5 z"
     id="path2991"
     style="fill:#008000" /><path
     d="M 36.000001,32 H 32 v 4 H 29.000001 V 32 H 25 v -3.000001 h 4.000001 v -4 H 32 v 4 h 4.000001 V 32 z"
     id="path3-6"
     style="fill:#ffffff" /></svg>