<?xml version="1.0" encoding="UTF-8" standalone="no"?>
<!-- Created with Inkscape (http://www.inkscape.org/) -->

<svg
   xmlns:dc="http://purl.org/dc/elements/1.1/"
   xmlns:cc="http://creativecommons.org/ns#"
   xmlns:rdf="http://www.w3.org/1999/02/22-rdf-syntax-ns#"
   xmlns:svg="http://www.w3.org/2000/svg"
   xmlns="http://www.w3.org/2000/svg"
   version="1.1"
   width="40"
   height="40"
   viewBox="0 0 40 40"
   id="Shape_5_2_"
   xml:space="preserve"><metadata
     id="metadata9"><rdf:RDF><cc:Work
         rdf:about=""><dc:format>image/svg+xml</dc:format><dc:type
           rdf:resource="http://purl.org/dc/dcmitype/StillImage" /><dc:title></dc:title></cc:Work></rdf:RDF></metadata><defs
     id="defs7" /><path
     d="M 20,38 C 10.058824,38 2,29.941965 2,20.000946 2,10.059927 10.058824,2 20,2 29.939279,2 38,10.059928 38,20.000946 38,29.941965 29.939279,38 20,38 z m 0,-22.703674 c -2.624288,0 -4.749526,2.106292 -4.749526,4.70462 0,2.598329 2.125238,4.704621 4.749526,4.704621 2.624288,0 4.749526,-2.106292 4.749526,-4.704621 0,-2.598328 -2.125238,-4.70462 -4.749526,-4.70462 z"
     id="path3"
     style="fill:#006adf" /><path
     d="M 14.727265,7 11.982731,10.476364 9.216359,7 7,9.272727 10.31545,12.588182 7.909079,15.636364 9.216359,17 11.981815,14.253636 14.727265,17 l 1.363637,-1.363636 -2.42817,-3.05 L 17,9.272727 14.727265,7 z"
     id="path3-9"
     style="fill:#ffffff" /><path
     d="M 30.500001,21.5 C 25.529501,21.5 21.5,25.5295 21.5,30.499999 21.5,35.4705 25.529501,39.5 30.500001,39.5 35.4705,39.5 39.5,35.4705 39.5,30.499999 39.5,25.5295 35.4705,21.5 30.500001,21.5 z"
     id="path2991"
     style="fill:#008000" /><path
     d="M 36.000001,32 H 32 v 4 H 29.000001 V 32 H 25 v -3.000001 h 4.000001 v -4 H 32 v 4 h 4.000001 V 32 z"
     id="path3-6"
     style="fill:#ffffff" /></svg>