<?xml version="1.0" encoding="UTF-8" standalone="no"?>
<!-- Created with Inkscape (http://www.inkscape.org/) -->

<svg
   xmlns:dc="http://purl.org/dc/elements/1.1/"
   xmlns:cc="http://creativecommons.org/ns#"
   xmlns:rdf="http://www.w3.org/1999/02/22-rdf-syntax-ns#"
   xmlns:svg="http://www.w3.org/2000/svg"
   xmlns="http://www.w3.org/2000/svg"
   version="1.1"
   width="40"
   height="40"
   viewBox="0 0 40 40"
   id="Shape_5_2_"
   xml:space="preserve"><metadata
     id="metadata9"><rdf:RDF><cc:Work
         rdf:about=""><dc:format>image/svg+xml</dc:format><dc:type
           rdf:resource="http://purl.org/dc/dcmitype/StillImage" /><dc:title></dc:title></cc:Work></rdf:RDF></metadata><defs
     id="defs7" /><path
     d="M 37.25,9 H 2.75 C 2.336,9 2,9.299 2,9.667 v 0.666 C 2,10.701 2.336,11 2.75,11 h 34.5 C 37.664,11 38,10.701 38,10.333 V 9.667 C 38,9.299 37.664,9 37.25,9 z"
     id="path2999"
     style="fill:#006adf;fill-opacity:1" /><path
     d="m 18.765,6.974 c 1.098,1.327 1.373,1.327 2.471,0 C 21.721,6.389 23.09,4.985 24.325,3.493 24.809,2.907 25.561,2 24.324,2 h -8.648 c -1.236,0 -0.485,0.907 0,1.492 1.235,1.492 2.604,2.897 3.089,3.482 z"
     id="path2997"
     style="fill:#006adf;fill-opacity:1" /><path
     d="M 37.25,29 H 2.75 C 2.336,29 2,29.299 2,29.667 v 0.666 C 2,30.701 2.336,31 2.75,31 h 34.5 C 37.664,31 38,30.701 38,30.333 V 29.667 C 38,29.299 37.664,29 37.25,29 z"
     id="path2995"
     style="fill:#006adf;fill-opacity:1" /><path
     d="m 21.235,33 c -1.098,-1.333 -1.373,-1.333 -2.471,0 -0.485,0.588 -1.854,2 -3.089,3.5 -0.485,0.588 -1.236,1.5 0,1.5 h 8.648 c 1.236,0 0.484,-0.912 0,-1.5 C 23.089,35 21.721,33.588 21.235,33 z"
     id="path3"
     style="fill:#006adf;fill-opacity:1" /><path
     d="M 12,28 H 28 V 12 H 12 v 16 z"
     id="path2990"
     style="fill:#006adf;fill-opacity:1" /><path
     d="M 8.2272653,0.5 5.4827313,3.976364 2.7163592,0.5 0.5,2.772727 3.8154502,6.088182 1.4090791,9.136364 2.7163592,10.5 5.4818153,7.753636 8.2272653,10.5 9.5909019,9.136364 7.1627323,6.086364 10.5,2.772727 8.2272653,0.5 z"
     id="path3-9"
     style="fill:#006adf;fill-opacity:1" /><path
     d="M 30.500001,21.5 C 25.529501,21.5 21.5,25.5295 21.5,30.499999 21.5,35.4705 25.529501,39.5 30.500001,39.5 35.4705,39.5 39.5,35.4705 39.5,30.499999 39.5,25.5295 35.4705,21.5 30.500001,21.5 z"
     id="path2991"
     style="fill:#008000" /><path
     d="M 36.000001,32 H 32 v 4 H 29.000001 V 32 H 25 v -3.000001 h 4.000001 v -4 H 32 v 4 h 4.000001 V 32 z"
     id="path3-6"
     style="fill:#ffffff" /></svg>