<?xml version="1.0" encoding="UTF-8" standalone="no"?>
<!-- Created with Inkscape (http://www.inkscape.org/) -->

<svg
   xmlns:dc="http://purl.org/dc/elements/1.1/"
   xmlns:cc="http://creativecommons.org/ns#"
   xmlns:rdf="http://www.w3.org/1999/02/22-rdf-syntax-ns#"
   xmlns:svg="http://www.w3.org/2000/svg"
   xmlns="http://www.w3.org/2000/svg"
   version="1.1"
   width="40"
   height="40"
   viewBox="0 0 40 40"
   id="Shape_5_2_"
   xml:space="preserve"><metadata
     id="metadata9"><rdf:RDF><cc:Work
         rdf:about=""><dc:format>image/svg+xml</dc:format><dc:type
           rdf:resource="http://purl.org/dc/dcmitype/StillImage" /><dc:title></dc:title></cc:Work></rdf:RDF></metadata><defs
     id="defs7" /><path
     d="m 10.666666,10.112316 c 0,0.789158 0,1.361368 0,1.361368 H 29.33334 c 0,0 0,-0.57221 0,-1.362316 0,-0.7901048 -1.09388,-1.4797891 -1.86668,-1.4797891 H 23.73334 V 5.7894737 C 23.73334,3.6967368 22.06174,2 20,2 17.93826,2 16.26666,3.6967368 16.26666,5.7894737 v 2.8421052 h -3.73332 c -0.77374,0 -1.866674,0.6906316 -1.866674,1.4807371 z M 20,4.8421053 c 0.5152,0 0.93334,0.4234736 0.93334,0.9473684 0,0.5238947 -0.41814,0.9473684 -0.93334,0.9473684 -0.5152,0 -0.93334,-0.4234737 -0.93334,-0.9473684 0,-0.5238948 0.41814,-0.9473684 0.93334,-0.9473684 z m 12.13334,1.8947368 h -7.46668 v 0.9473684 h 2.62548 c 1.86666,0 2.97452,1.1254737 2.97452,3.0202105 v 1.716632 H 29.33334 V 34.210526 H 10.666666 V 12.421053 H 9.733334 v -1.716632 c 0,-1.8947368 1.108803,-3.0202105 2.975466,-3.0202105 h 2.62454 V 6.7368421 H 7.866666 C 6.933334,6.7368421 6,7.6842105 6,8.6315789 V 36.105263 C 6,37.052632 6.933334,38 7.866666,38 H 32.13334 C 33.06666,38 34,37.052632 34,36.105263 V 8.6315789 C 34,7.6842105 33.06666,6.7368421 32.13334,6.7368421 z m -8.86668,10.4210529 -2.81772,3.622737 -2.84014,-3.622737 -2.27546,2.368421 3.40386,3.455052 -2.47054,3.176527 1.34214,1.421052 2.8392,-2.862 2.81866,2.862 1.4,-1.421052 L 22.17374,22.979474 25.6,19.526316 23.26666,17.157895 z"
     id="path3"
     style="fill:#006adf" /><path
     d="M 30.500001,21.5 C 25.529501,21.5 21.5,25.5295 21.5,30.499999 21.5,35.4705 25.529501,39.5 30.500001,39.5 35.4705,39.5 39.5,35.4705 39.5,30.499999 39.5,25.5295 35.4705,21.5 30.500001,21.5 z"
     id="path2991"
     style="fill:#008000" /><path
     d="M 36.000001,32 H 32 v 4 H 29.000001 V 32 H 25 v -3.000001 h 4.000001 v -4 H 32 v 4 h 4.000001 V 32 z"
     id="path3-6"
     style="fill:#ffffff" /></svg>