<?xml version="1.0" encoding="UTF-8" standalone="no"?>
<!-- Generator: Adobe Illustrator 15.0.0, SVG Export Plug-In . SVG Version: 6.00 Build 0)  -->

<svg
   xmlns:dc="http://purl.org/dc/elements/1.1/"
   xmlns:cc="http://creativecommons.org/ns#"
   xmlns:rdf="http://www.w3.org/1999/02/22-rdf-syntax-ns#"
   xmlns:svg="http://www.w3.org/2000/svg"
   xmlns="http://www.w3.org/2000/svg"
   xmlns:sodipodi="http://sodipodi.sourceforge.net/DTD/sodipodi-0.dtd"
   xmlns:inkscape="http://www.inkscape.org/namespaces/inkscape"
   version="1.1"
   id="Shape_5_2_"
   x="0px"
   y="0px"
   width="40px"
   height="40px"
   viewBox="0 0 40 40"
   enable-background="new 0 0 40 40"
   xml:space="preserve"
   inkscape:version="0.48.4 r9939"
   sodipodi:docname="folder.svg"><metadata
     id="metadata9"><rdf:RDF><cc:Work
         rdf:about=""><dc:format>image/svg+xml</dc:format><dc:type
           rdf:resource="http://purl.org/dc/dcmitype/StillImage" /><dc:title></dc:title></cc:Work></rdf:RDF></metadata><defs
     id="defs7" /><sodipodi:namedview
     pagecolor="#ffffff"
     bordercolor="#666666"
     borderopacity="1"
     objecttolerance="10"
     gridtolerance="10"
     guidetolerance="10"
     inkscape:pageopacity="0"
     inkscape:pageshadow="2"
     inkscape:window-width="1317"
     inkscape:window-height="744"
     id="namedview5"
     showgrid="false"
     inkscape:zoom="11.8"
     inkscape:cx="19.683691"
     inkscape:cy="19.358378"
     inkscape:window-x="45"
     inkscape:window-y="-1"
     inkscape:window-maximized="1"
     inkscape:current-layer="Shape_5_2_" /><path
     d="m 34.10811,13.5 h -0.97297 v -3 c 0,-1 -0.97298,-2 -1.94595,-2 0,0 -8.26638,0 -15.56757,0 -1.94594,0 -1.94594,-4 -3.89189,-4 -3.437514,0 -7.783784,0 -7.783784,0 C 2.972973,4.5 2,5.5 2,6.5 v 27 c 0,1 0.972973,2 1.945946,2 H 32.16216 c 1.07611,0 1.94595,-2 1.94595,-2 L 38,14.5 c 0,-1 -0.97297,-1 -3.89189,-1 z M 3.945946,8.5 c 0,-1 0,-2 1.945946,-2 0,0 2.918919,0 4.864868,0 1.94594,0 0.97297,4 3.89189,4 6.88184,0 15.56757,0 15.56757,0 0.97297,0 0.97297,1 0.97297,1 v 2 H 9.783784 c -1.659892,0 -1.945946,2 -1.945946,2 L 4.303027,32.758 C 4.018919,32.258 3.945946,31.506 3.945946,30.5 v -22 z"
     id="path3"
     inkscape:connector-curvature="0"
     style="fill:#006adf" /><path
     inkscape:connector-curvature="0"
     style="fill:#008000"
     d="M 30.500001,21.5 C 25.529501,21.5 21.5,25.5295 21.5,30.499999 21.5,35.4705 25.529501,39.5 30.500001,39.5 35.4705,39.5 39.5,35.4705 39.5,30.499999 39.5,25.5295 35.4705,21.5 30.500001,21.5 z"
     id="path2991" /><path
     inkscape:connector-curvature="0"
     style="fill:#ffffff"
     d="M 36.000001,32 H 32 v 4 H 29.000001 V 32 H 25 v -3.000001 h 4.000001 v -4 H 32 v 4 h 4.000001 V 32 z"
     id="path3-6" /></svg>